<?xml version="1.0" encoding="UTF-8"?>
<svg id="_图层_1" data-name="图层 1" xmlns="http://www.w3.org/2000/svg" viewBox="0 0 179.74 41.06">
  <defs>
    <style>
      .cls-1 {
        fill: #3e3a39;
      }

      .cls-1, .cls-2 {
        stroke-width: 0px;
      }

      .cls-2 {
        fill: #ffb600;
      }
    </style>
  </defs>
  <path class="cls-1" d="m91.88,4.13c0-.96-.78-1.75-1.75-1.75h-24.65c-.96,0-1.75.78-1.75,1.75v27.54c0,2.65-2.16,4.81-4.81,4.81h-2.25c-.96,0-1.75.78-1.75,1.75s.78,1.75,1.75,1.75h2.25c4.58,0,8.3-3.72,8.3-8.3V5.88h22.9c.96,0,1.75-.78,1.75-1.75Z"/>
  <path class="cls-1" d="m90.14,36.48h-2.48c-2.52,0-4.57-2.05-4.57-4.57V12.24h7.05c.96,0,1.75-.78,1.75-1.75s-.78-1.75-1.75-1.75h-19.02c-.96,0-1.75.78-1.75,1.75s.78,1.75,1.75,1.75h.54v23.25c0,.55-.44.99-.99.99-.96,0-1.75.78-1.75,1.75s.78,1.75,1.75,1.75c2.47,0,4.48-2.01,4.48-4.48V12.24h4.44v19.67c0,4.45,3.62,8.07,8.07,8.07h2.48c.96,0,1.75-.78,1.75-1.75s-.78-1.75-1.75-1.75Z"/>
  <path class="cls-1" d="m58.45,9.09c.33.32.76.49,1.22.49s.92-.19,1.25-.53c.67-.69.65-1.8-.04-2.47l-4.53-4.4c-.69-.67-1.8-.66-2.47.04-.67.69-.65,1.8.04,2.47l4.53,4.4Z"/>
  <path class="cls-1" d="m59.92,28.27v-11.97c0-2.63-2.14-4.78-4.78-4.78-.96,0-1.75.78-1.75,1.75s.78,1.75,1.75,1.75c.71,0,1.28.58,1.28,1.29v11.97c0,.71-.58,1.28-1.28,1.28-.96,0-1.75.78-1.75,1.75s.78,1.75,1.75,1.75c2.63,0,4.78-2.14,4.78-4.78Z"/>
  <path class="cls-1" d="m92.44,15.24c-.47,0-.9.2-1.23.53l-4.4,4.54c-.67.69-.65,1.8.04,2.47.33.32.76.49,1.21.49s.92-.19,1.26-.53l4.4-4.54c.32-.33.5-.78.49-1.24s-.2-.9-.53-1.23c-.33-.32-.76-.48-1.24-.49Z"/>
  <g>
    <path class="cls-2" d="m37.15,0H13.12C8.17,0,4.11,3.88,3.81,8.75c-.01.1-.02.21-.02.31,0,.03,0,.06,0,.09,0,.06,0,.12,0,.18h.01c.14,1.33,1.26,2.36,2.62,2.36s2.49-1.04,2.62-2.36h.01c0-2.24,1.82-4.07,4.07-4.07h24.11c1.6,0,2.91,1.39,2.7,2.97-.22,1.67-1.76,2.13-3.63,2.13l-20.27.06c-1.62,0-3.03,1.1-3.43,2.66l-5.66,22.29c-.08.35-.15.4-.53.4h-3.8c-1.45.01-2.61,1.19-2.61,2.64s1.17,2.62,2.61,2.64h0s6.2,0,6.2,0c2.74,0,3.3-2.63,3.3-2.64s0-.02,0-.02l5.78-22.26c.1-.36.15-.42.53-.42l17.88-.08c4.47,0,8.18-2.38,8.83-6.5C45.9,4.32,42.03,0,37.15,0Z"/>
    <path class="cls-2" d="m42.64,35.79h0s-11.31,0-11.31,0c-.21,0-.37-.2-.31-.41l3.78-14.68c.22-1.46-.69-2.89-2.16-3.27-1.56-.41-3.15.52-3.57,2.07h0s-4.71,18.47-4.71,18.47c-.03.15-.04.3-.04.45,0,1.45,1.17,2.62,2.61,2.64h0s15.7,0,15.7,0h0c1.45-.01,2.61-1.19,2.61-2.64s-1.17-2.62-2.61-2.64Z"/>
  </g>
  <path class="cls-1" d="m128.37,23.35c-.96,0-1.75-.78-1.75-1.75V5.88h-21.1v15.72c0,.96-.78,1.75-1.75,1.75s-1.75-.78-1.75-1.75V4.13c0-.96.78-1.75,1.75-1.75h24.59c.96,0,1.75.78,1.75,1.75v17.47c0,.96-.78,1.75-1.75,1.75Z"/>
  <path class="cls-1" d="m130.19,38.99c-.96,0-1.75-.78-1.75-1.75v-8.54h-24.74v8.54c0,.96-.78,1.75-1.75,1.75s-1.75-.78-1.75-1.75v-10.29c0-.96.78-1.75,1.75-1.75h28.23c.96,0,1.75.78,1.75,1.75v10.29c0,.96-.78,1.75-1.75,1.75Z"/>
  <path class="cls-1" d="m116.08,5.88c-.96,0-1.75-.78-1.75-1.75V1.75C114.33.78,115.11,0,116.08,0s1.75.78,1.75,1.75v2.39c0,.96-.78,1.75-1.75,1.75Z"/>
  <path class="cls-1" d="m132.9,14.09h-33.89c-.96,0-1.75-.78-1.75-1.75s.78-1.75,1.75-1.75h33.89c.96,0,1.75.78,1.75,1.75s-.78,1.75-1.75,1.75Z"/>
  <path class="cls-1" d="m134.46,39.97h-37.01c-.96,0-1.75-.78-1.75-1.75s.78-1.75,1.75-1.75h37.01c.96,0,1.75.78,1.75,1.75s-.78,1.75-1.75,1.75Z"/>
  <path class="cls-1" d="m115.95,13.04c-.96,0-1.75-.78-1.75-1.75v-2.55c0-.96.78-1.75,1.75-1.75s1.75.78,1.75,1.75v2.55c0,.96-.78,1.75-1.75,1.75Z"/>
  <path class="cls-1" d="m115.95,23.35c-.96,0-1.75-.78-1.75-1.75v-4.43c0-.96.78-1.75,1.75-1.75s1.75.78,1.75,1.75v4.43c0,.96-.78,1.75-1.75,1.75Z"/>
  <g>
    <path class="cls-1" d="m111.18,39.6c-.96,0-1.75-.78-1.75-1.75v-10.9c0-.96.78-1.75,1.75-1.75s1.75.78,1.75,1.75v10.9c0,.96-.78,1.75-1.75,1.75Z"/>
    <path class="cls-1" d="m120.98,39.6c-.96,0-1.75-.78-1.75-1.75v-10.9c0-.96.78-1.75,1.75-1.75s1.75.78,1.75,1.75v10.9c0,.96-.78,1.75-1.75,1.75Z"/>
  </g>
  <path class="cls-1" d="m171.91,23.35c-.96,0-1.75-.78-1.75-1.75V5.88h-21.1v15.72c0,.96-.78,1.75-1.75,1.75s-1.75-.78-1.75-1.75V4.13c0-.96.78-1.75,1.75-1.75h24.59c.96,0,1.75.78,1.75,1.75v17.47c0,.96-.78,1.75-1.75,1.75Z"/>
  <path class="cls-1" d="m173.73,38.99c-.96,0-1.75-.78-1.75-1.75v-8.54h-24.74v8.54c0,.96-.78,1.75-1.75,1.75s-1.75-.78-1.75-1.75v-10.29c0-.96.78-1.75,1.75-1.75h28.23c.96,0,1.75.78,1.75,1.75v10.29c0,.96-.78,1.75-1.75,1.75Z"/>
  <path class="cls-1" d="m159.61,5.88c-.96,0-1.75-.78-1.75-1.75V1.75C157.87.78,158.65,0,159.61,0s1.75.78,1.75,1.75v2.39c0,.96-.78,1.75-1.75,1.75Z"/>
  <path class="cls-1" d="m176.43,14.09h-33.89c-.96,0-1.75-.78-1.75-1.75s.78-1.75,1.75-1.75h33.89c.96,0,1.75.78,1.75,1.75s-.78,1.75-1.75,1.75Z"/>
  <path class="cls-1" d="m177.99,39.97h-37.01c-.96,0-1.75-.78-1.75-1.75s.78-1.75,1.75-1.75h37.01c.96,0,1.75.78,1.75,1.75s-.78,1.75-1.75,1.75Z"/>
  <path class="cls-1" d="m159.49,13.04c-.96,0-1.75-.78-1.75-1.75v-2.55c0-.96.78-1.75,1.75-1.75s1.75.78,1.75,1.75v2.55c0,.96-.78,1.75-1.75,1.75Z"/>
  <path class="cls-1" d="m159.49,23.35c-.96,0-1.75-.78-1.75-1.75v-4.43c0-.96.78-1.75,1.75-1.75s1.75.78,1.75,1.75v4.43c0,.96-.78,1.75-1.75,1.75Z"/>
  <g>
    <path class="cls-1" d="m154.71,39.6c-.96,0-1.75-.78-1.75-1.75v-10.9c0-.96.78-1.75,1.75-1.75s1.75.78,1.75,1.75v10.9c0,.96-.78,1.75-1.75,1.75Z"/>
    <path class="cls-1" d="m164.51,39.6c-.96,0-1.75-.78-1.75-1.75v-10.9c0-.96.78-1.75,1.75-1.75s1.75.78,1.75,1.75v10.9c0,.96-.78,1.75-1.75,1.75Z"/>
  </g>
</svg>